<svg width="138" height="48" viewBox="0 0 138 48" fill="none" xmlns="http://www.w3.org/2000/svg">
<rect width="138" height="48" rx="12" fill="#E2D4F0"/>
<path d="M33.1667 29.8333C36.8486 29.8333 39.8333 26.8486 39.8333 23.1667C39.8333 19.4848 36.8486 16.5 33.1667 16.5C29.4848 16.5 26.5 19.4848 26.5 23.1667C26.5 26.8486 29.4848 29.8333 33.1667 29.8333Z" stroke="#3C3C3C" stroke-width="2" stroke-linecap="round" stroke-linejoin="round"/>
<path d="M41.5 31.5L37.875 27.875" stroke="#3C3C3C" stroke-width="2" stroke-linecap="round" stroke-linejoin="round"/>
<path d="M58.846 26.83H54.59L53.806 29H52.462L55.99 19.298H57.46L60.974 29H59.63L58.846 26.83ZM58.482 25.794L56.718 20.866L54.954 25.794H58.482ZM69.3156 21.328V29H68.0416V27.866C67.7989 28.258 67.4583 28.566 67.0196 28.79C66.5903 29.0047 66.1143 29.112 65.5916 29.112C64.9943 29.112 64.4576 28.9907 63.9816 28.748C63.5056 28.496 63.1276 28.1227 62.8476 27.628C62.5769 27.1333 62.4416 26.5313 62.4416 25.822V21.328H63.7016V25.654C63.7016 26.41 63.8929 26.9933 64.2756 27.404C64.6583 27.8053 65.1809 28.006 65.8436 28.006C66.5249 28.006 67.0616 27.796 67.4536 27.376C67.8456 26.956 68.0416 26.3447 68.0416 25.542V21.328H69.3156ZM74.1827 29.126C73.5947 29.126 73.0673 29.028 72.6007 28.832C72.134 28.6267 71.7653 28.3467 71.4947 27.992C71.224 27.628 71.0747 27.2127 71.0467 26.746H72.3627C72.4 27.1287 72.5773 27.4413 72.8947 27.684C73.2213 27.9267 73.646 28.048 74.1687 28.048C74.654 28.048 75.0367 27.9407 75.3167 27.726C75.5967 27.5113 75.7367 27.2407 75.7367 26.914C75.7367 26.578 75.5873 26.3307 75.2887 26.172C74.99 26.004 74.528 25.8407 73.9027 25.682C73.3333 25.5327 72.8667 25.3833 72.5027 25.234C72.148 25.0753 71.84 24.8467 71.5787 24.548C71.3267 24.24 71.2007 23.8387 71.2007 23.344C71.2007 22.952 71.3173 22.5927 71.5507 22.266C71.784 21.9393 72.1153 21.6827 72.5447 21.496C72.974 21.3 73.464 21.202 74.0147 21.202C74.864 21.202 75.55 21.4167 76.0727 21.846C76.5953 22.2753 76.8753 22.8633 76.9127 23.61H75.6387C75.6107 23.2087 75.4473 22.8867 75.1487 22.644C74.8593 22.4013 74.4673 22.28 73.9727 22.28C73.5153 22.28 73.1513 22.378 72.8807 22.574C72.61 22.77 72.4747 23.0267 72.4747 23.344C72.4747 23.596 72.554 23.806 72.7127 23.974C72.8807 24.1327 73.086 24.2633 73.3287 24.366C73.5807 24.4593 73.926 24.5667 74.3647 24.688C74.9153 24.8373 75.3633 24.9867 75.7087 25.136C76.054 25.276 76.348 25.4907 76.5907 25.78C76.8427 26.0693 76.9733 26.4473 76.9827 26.914C76.9827 27.334 76.866 27.712 76.6327 28.048C76.3993 28.384 76.068 28.65 75.6387 28.846C75.2187 29.0327 74.7333 29.126 74.1827 29.126ZM80.3351 22.378V26.9C80.3351 27.2733 80.4145 27.5393 80.5731 27.698C80.7318 27.8473 81.0071 27.922 81.3991 27.922H82.3371V29H81.1891C80.4798 29 79.9478 28.8367 79.5931 28.51C79.2385 28.1833 79.0611 27.6467 79.0611 26.9V22.378H78.0671V21.328H79.0611V19.396H80.3351V21.328H82.3371V22.378H80.3351ZM85.1547 22.574C85.3787 22.1353 85.6961 21.7947 86.1067 21.552C86.5267 21.3093 87.0354 21.188 87.6327 21.188V22.504H87.2967C85.8687 22.504 85.1547 23.2787 85.1547 24.828V29H83.8807V21.328H85.1547V22.574ZM88.6274 25.136C88.6274 24.352 88.7861 23.666 89.1034 23.078C89.4207 22.4807 89.8547 22.0187 90.4054 21.692C90.9654 21.3653 91.5861 21.202 92.2674 21.202C92.9394 21.202 93.5227 21.3467 94.0174 21.636C94.5121 21.9253 94.8807 22.2893 95.1234 22.728V21.328H96.4114V29H95.1234V27.572C94.8714 28.02 94.4934 28.3933 93.9894 28.692C93.4947 28.9813 92.9161 29.126 92.2534 29.126C91.5721 29.126 90.9561 28.958 90.4054 28.622C89.8547 28.286 89.4207 27.8147 89.1034 27.208C88.7861 26.6013 88.6274 25.9107 88.6274 25.136ZM95.1234 25.15C95.1234 24.5713 95.0067 24.0673 94.7734 23.638C94.5401 23.2087 94.2227 22.882 93.8214 22.658C93.4294 22.4247 92.9954 22.308 92.5194 22.308C92.0434 22.308 91.6094 22.42 91.2174 22.644C90.8254 22.868 90.5127 23.1947 90.2794 23.624C90.0461 24.0533 89.9294 24.5573 89.9294 25.136C89.9294 25.724 90.0461 26.2373 90.2794 26.676C90.5127 27.1053 90.8254 27.4367 91.2174 27.67C91.6094 27.894 92.0434 28.006 92.5194 28.006C92.9954 28.006 93.4294 27.894 93.8214 27.67C94.2227 27.4367 94.5401 27.1053 94.7734 26.676C95.0067 26.2373 95.1234 25.7287 95.1234 25.15ZM99.8383 18.64V29H98.5643V18.64H99.8383ZM102.668 20.082C102.425 20.082 102.22 19.998 102.052 19.83C101.884 19.662 101.8 19.4567 101.8 19.214C101.8 18.9713 101.884 18.766 102.052 18.598C102.22 18.43 102.425 18.346 102.668 18.346C102.901 18.346 103.097 18.43 103.256 18.598C103.424 18.766 103.508 18.9713 103.508 19.214C103.508 19.4567 103.424 19.662 103.256 19.83C103.097 19.998 102.901 20.082 102.668 20.082ZM103.284 21.328V29H102.01V21.328H103.284ZM104.979 25.136C104.979 24.352 105.138 23.666 105.455 23.078C105.772 22.4807 106.206 22.0187 106.757 21.692C107.317 21.3653 107.938 21.202 108.619 21.202C109.291 21.202 109.874 21.3467 110.369 21.636C110.864 21.9253 111.232 22.2893 111.475 22.728V21.328H112.763V29H111.475V27.572C111.223 28.02 110.845 28.3933 110.341 28.692C109.846 28.9813 109.268 29.126 108.605 29.126C107.924 29.126 107.308 28.958 106.757 28.622C106.206 28.286 105.772 27.8147 105.455 27.208C105.138 26.6013 104.979 25.9107 104.979 25.136ZM111.475 25.15C111.475 24.5713 111.358 24.0673 111.125 23.638C110.892 23.2087 110.574 22.882 110.173 22.658C109.781 22.4247 109.347 22.308 108.871 22.308C108.395 22.308 107.961 22.42 107.569 22.644C107.177 22.868 106.864 23.1947 106.631 23.624C106.398 24.0533 106.281 24.5573 106.281 25.136C106.281 25.724 106.398 26.2373 106.631 26.676C106.864 27.1053 107.177 27.4367 107.569 27.67C107.961 27.894 108.395 28.006 108.871 28.006C109.347 28.006 109.781 27.894 110.173 27.67C110.574 27.4367 110.892 27.1053 111.125 26.676C111.358 26.2373 111.475 25.7287 111.475 25.15Z" fill="#3C3C3C"/>
</svg>
