<svg width="117" height="48" viewBox="0 0 117 48" fill="none" xmlns="http://www.w3.org/2000/svg">
<rect width="117" height="48" rx="12" fill="#E2D4F0"/>
<path d="M33.1667 29.8333C36.8486 29.8333 39.8333 26.8486 39.8333 23.1667C39.8333 19.4848 36.8486 16.5 33.1667 16.5C29.4848 16.5 26.5 19.4848 26.5 23.1667C26.5 26.8486 29.4848 29.8333 33.1667 29.8333Z" stroke="#3C3C3C" stroke-width="2" stroke-linecap="round" stroke-linejoin="round"/>
<path d="M41.5 31.5L37.875 27.875" stroke="#3C3C3C" stroke-width="2" stroke-linecap="round" stroke-linejoin="round"/>
<path d="M54.352 20.278V23.54H57.908V24.59H54.352V27.95H58.328V29H53.078V19.228H58.328V20.278H54.352ZM61.5297 22.574C61.7537 22.1353 62.0711 21.7947 62.4817 21.552C62.9017 21.3093 63.4104 21.188 64.0077 21.188V22.504H63.6717C62.2437 22.504 61.5297 23.2787 61.5297 24.828V29H60.2557V21.328H61.5297V22.574ZM68.8244 29.126C68.1057 29.126 67.4524 28.9627 66.8644 28.636C66.2857 28.3093 65.8284 27.8473 65.4924 27.25C65.1657 26.6433 65.0024 25.9433 65.0024 25.15C65.0024 24.366 65.1704 23.6753 65.5064 23.078C65.8517 22.4713 66.3184 22.0093 66.9064 21.692C67.4944 21.3653 68.1524 21.202 68.8804 21.202C69.6084 21.202 70.2664 21.3653 70.8544 21.692C71.4424 22.0093 71.9044 22.4667 72.2404 23.064C72.5857 23.6613 72.7584 24.3567 72.7584 25.15C72.7584 25.9433 72.5811 26.6433 72.2264 27.25C71.8811 27.8473 71.4097 28.3093 70.8124 28.636C70.2151 28.9627 69.5524 29.126 68.8244 29.126ZM68.8244 28.006C69.2817 28.006 69.7111 27.8987 70.1124 27.684C70.5137 27.4693 70.8357 27.1473 71.0784 26.718C71.3304 26.2887 71.4564 25.766 71.4564 25.15C71.4564 24.534 71.3351 24.0113 71.0924 23.582C70.8497 23.1527 70.5324 22.8353 70.1404 22.63C69.7484 22.4153 69.3237 22.308 68.8664 22.308C68.3997 22.308 67.9704 22.4153 67.5784 22.63C67.1957 22.8353 66.8877 23.1527 66.6544 23.582C66.4211 24.0113 66.3044 24.534 66.3044 25.15C66.3044 25.7753 66.4164 26.3027 66.6404 26.732C66.8737 27.1613 67.1817 27.4833 67.5644 27.698C67.9471 27.9033 68.3671 28.006 68.8244 28.006ZM75.7075 22.742C75.9595 22.3033 76.3328 21.9393 76.8275 21.65C77.3315 21.3513 77.9148 21.202 78.5775 21.202C79.2588 21.202 79.8748 21.3653 80.4255 21.692C80.9855 22.0187 81.4241 22.4807 81.7415 23.078C82.0588 23.666 82.2175 24.352 82.2175 25.136C82.2175 25.9107 82.0588 26.6013 81.7415 27.208C81.4241 27.8147 80.9855 28.286 80.4255 28.622C79.8748 28.958 79.2588 29.126 78.5775 29.126C77.9241 29.126 77.3455 28.9813 76.8415 28.692C76.3468 28.3933 75.9688 28.0247 75.7075 27.586V32.64H74.4335V21.328H75.7075V22.742ZM80.9155 25.136C80.9155 24.5573 80.7988 24.0533 80.5655 23.624C80.3321 23.1947 80.0148 22.868 79.6135 22.644C79.2215 22.42 78.7875 22.308 78.3115 22.308C77.8448 22.308 77.4108 22.4247 77.0095 22.658C76.6175 22.882 76.3001 23.2133 76.0575 23.652C75.8241 24.0813 75.7075 24.5807 75.7075 25.15C75.7075 25.7287 75.8241 26.2373 76.0575 26.676C76.3001 27.1053 76.6175 27.4367 77.0095 27.67C77.4108 27.894 77.8448 28.006 78.3115 28.006C78.7875 28.006 79.2215 27.894 79.6135 27.67C80.0148 27.4367 80.3321 27.1053 80.5655 26.676C80.7988 26.2373 80.9155 25.724 80.9155 25.136ZM83.4184 25.136C83.4184 24.352 83.5771 23.666 83.8944 23.078C84.2117 22.4807 84.6457 22.0187 85.1964 21.692C85.7564 21.3653 86.3771 21.202 87.0584 21.202C87.7304 21.202 88.3137 21.3467 88.8084 21.636C89.3031 21.9253 89.6717 22.2893 89.9144 22.728V21.328H91.2024V29H89.9144V27.572C89.6624 28.02 89.2844 28.3933 88.7804 28.692C88.2857 28.9813 87.7071 29.126 87.0444 29.126C86.3631 29.126 85.7471 28.958 85.1964 28.622C84.6457 28.286 84.2117 27.8147 83.8944 27.208C83.5771 26.6013 83.4184 25.9107 83.4184 25.136ZM89.9144 25.15C89.9144 24.5713 89.7977 24.0673 89.5644 23.638C89.3311 23.2087 89.0137 22.882 88.6124 22.658C88.2204 22.4247 87.7864 22.308 87.3104 22.308C86.8344 22.308 86.4004 22.42 86.0084 22.644C85.6164 22.868 85.3037 23.1947 85.0704 23.624C84.8371 24.0533 84.7204 24.5573 84.7204 25.136C84.7204 25.724 84.8371 26.2373 85.0704 26.676C85.3037 27.1053 85.6164 27.4367 86.0084 27.67C86.4004 27.894 86.8344 28.006 87.3104 28.006C87.7864 28.006 88.2204 27.894 88.6124 27.67C89.0137 27.4367 89.3311 27.1053 89.5644 26.676C89.7977 26.2373 89.9144 25.7287 89.9144 25.15Z" fill="#3C3C3C"/>
</svg>
