<svg width="116" height="48" viewBox="0 0 116 48" fill="none" xmlns="http://www.w3.org/2000/svg">
<rect width="116" height="48" rx="12" fill="#E2D4F0"/>
<path d="M33.1667 29.8333C36.8486 29.8333 39.8333 26.8486 39.8333 23.1667C39.8333 19.4848 36.8486 16.5 33.1667 16.5C29.4848 16.5 26.5 19.4848 26.5 23.1667C26.5 26.8486 29.4848 29.8333 33.1667 29.8333Z" stroke="#3C3C3C" stroke-width="2" stroke-linecap="round" stroke-linejoin="round"/>
<path d="M41.5 31.5L37.875 27.875" stroke="#3C3C3C" stroke-width="2" stroke-linecap="round" stroke-linejoin="round"/>
<path d="M58.846 26.83H54.59L53.806 29H52.462L55.99 19.298H57.46L60.974 29H59.63L58.846 26.83ZM58.482 25.794L56.718 20.866L54.954 25.794H58.482ZM65.6336 22.378H64.0236V29H62.7496V22.378H61.7556V21.328H62.7496V20.782C62.7496 19.9233 62.9689 19.298 63.4076 18.906C63.8556 18.5047 64.5696 18.304 65.5496 18.304V19.368C64.9896 19.368 64.5929 19.48 64.3596 19.704C64.1356 19.9187 64.0236 20.278 64.0236 20.782V21.328H65.6336V22.378ZM68.393 22.574C68.617 22.1353 68.9343 21.7947 69.345 21.552C69.765 21.3093 70.2737 21.188 70.871 21.188V22.504H70.535C69.107 22.504 68.393 23.2787 68.393 24.828V29H67.119V21.328H68.393V22.574ZM72.9997 20.082C72.757 20.082 72.5517 19.998 72.3837 19.83C72.2157 19.662 72.1317 19.4567 72.1317 19.214C72.1317 18.9713 72.2157 18.766 72.3837 18.598C72.5517 18.43 72.757 18.346 72.9997 18.346C73.233 18.346 73.429 18.43 73.5877 18.598C73.7557 18.766 73.8397 18.9713 73.8397 19.214C73.8397 19.4567 73.7557 19.662 73.5877 19.83C73.429 19.998 73.233 20.082 72.9997 20.082ZM73.6157 21.328V29H72.3417V21.328H73.6157ZM80.071 29L77.061 25.612V29H75.787V18.64H77.061V24.73L80.015 21.328H81.793L78.181 25.15L81.807 29H80.071ZM82.5161 25.136C82.5161 24.352 82.6747 23.666 82.9921 23.078C83.3094 22.4807 83.7434 22.0187 84.2941 21.692C84.8541 21.3653 85.4747 21.202 86.1561 21.202C86.8281 21.202 87.4114 21.3467 87.9061 21.636C88.4007 21.9253 88.7694 22.2893 89.0121 22.728V21.328H90.3001V29H89.0121V27.572C88.7601 28.02 88.3821 28.3933 87.8781 28.692C87.3834 28.9813 86.8047 29.126 86.1421 29.126C85.4607 29.126 84.8447 28.958 84.2941 28.622C83.7434 28.286 83.3094 27.8147 82.9921 27.208C82.6747 26.6013 82.5161 25.9107 82.5161 25.136ZM89.0121 25.15C89.0121 24.5713 88.8954 24.0673 88.6621 23.638C88.4287 23.2087 88.1114 22.882 87.7101 22.658C87.3181 22.4247 86.8841 22.308 86.4081 22.308C85.9321 22.308 85.4981 22.42 85.1061 22.644C84.7141 22.868 84.4014 23.1947 84.1681 23.624C83.9347 24.0533 83.8181 24.5573 83.8181 25.136C83.8181 25.724 83.9347 26.2373 84.1681 26.676C84.4014 27.1053 84.7141 27.4367 85.1061 27.67C85.4981 27.894 85.9321 28.006 86.4081 28.006C86.8841 28.006 87.3181 27.894 87.7101 27.67C88.1114 27.4367 88.4287 27.1053 88.6621 26.676C88.8954 26.2373 89.0121 25.7287 89.0121 25.15Z" fill="#3C3C3C"/>
</svg>
