<svg width="106" height="48" viewBox="0 0 106 48" fill="none" xmlns="http://www.w3.org/2000/svg">
<rect width="106" height="48" rx="12" fill="#E2D4F0"/>
<path d="M33.1667 29.8333C36.8486 29.8333 39.8333 26.8486 39.8333 23.1667C39.8333 19.4848 36.8486 16.5 33.1667 16.5C29.4848 16.5 26.5 19.4848 26.5 23.1667C26.5 26.8486 29.4848 29.8333 33.1667 29.8333Z" stroke="#3C3C3C" stroke-width="2" stroke-linecap="round" stroke-linejoin="round"/>
<path d="M41.5 31.5L37.875 27.875" stroke="#3C3C3C" stroke-width="2" stroke-linecap="round" stroke-linejoin="round"/>
<path d="M58.846 26.83H54.59L53.806 29H52.462L55.99 19.298H57.46L60.974 29H59.63L58.846 26.83ZM58.482 25.794L56.718 20.866L54.954 25.794H58.482ZM65.2276 29.126C64.6396 29.126 64.1123 29.028 63.6456 28.832C63.1789 28.6267 62.8103 28.3467 62.5396 27.992C62.2689 27.628 62.1196 27.2127 62.0916 26.746H63.4076C63.4449 27.1287 63.6223 27.4413 63.9396 27.684C64.2663 27.9267 64.6909 28.048 65.2136 28.048C65.6989 28.048 66.0816 27.9407 66.3616 27.726C66.6416 27.5113 66.7816 27.2407 66.7816 26.914C66.7816 26.578 66.6323 26.3307 66.3336 26.172C66.0349 26.004 65.5729 25.8407 64.9476 25.682C64.3783 25.5327 63.9116 25.3833 63.5476 25.234C63.1929 25.0753 62.8849 24.8467 62.6236 24.548C62.3716 24.24 62.2456 23.8387 62.2456 23.344C62.2456 22.952 62.3623 22.5927 62.5956 22.266C62.8289 21.9393 63.1603 21.6827 63.5896 21.496C64.0189 21.3 64.5089 21.202 65.0596 21.202C65.9089 21.202 66.5949 21.4167 67.1176 21.846C67.6403 22.2753 67.9203 22.8633 67.9576 23.61H66.6836C66.6556 23.2087 66.4923 22.8867 66.1936 22.644C65.9043 22.4013 65.5123 22.28 65.0176 22.28C64.5603 22.28 64.1963 22.378 63.9256 22.574C63.6549 22.77 63.5196 23.0267 63.5196 23.344C63.5196 23.596 63.5989 23.806 63.7576 23.974C63.9256 24.1327 64.1309 24.2633 64.3736 24.366C64.6256 24.4593 64.9709 24.5667 65.4096 24.688C65.9603 24.8373 66.4083 24.9867 66.7536 25.136C67.0989 25.276 67.3929 25.4907 67.6356 25.78C67.8876 26.0693 68.0183 26.4473 68.0276 26.914C68.0276 27.334 67.9109 27.712 67.6776 28.048C67.4443 28.384 67.1129 28.65 66.6836 28.846C66.2636 29.0327 65.7783 29.126 65.2276 29.126ZM70.484 20.082C70.2414 20.082 70.036 19.998 69.868 19.83C69.7 19.662 69.616 19.4567 69.616 19.214C69.616 18.9713 69.7 18.766 69.868 18.598C70.036 18.43 70.2414 18.346 70.484 18.346C70.7174 18.346 70.9134 18.43 71.072 18.598C71.24 18.766 71.324 18.9713 71.324 19.214C71.324 19.4567 71.24 19.662 71.072 19.83C70.9134 19.998 70.7174 20.082 70.484 20.082ZM71.1 21.328V29H69.826V21.328H71.1ZM72.7954 25.136C72.7954 24.352 72.954 23.666 73.2714 23.078C73.5887 22.4807 74.0227 22.0187 74.5734 21.692C75.1334 21.3653 75.754 21.202 76.4354 21.202C77.1074 21.202 77.6907 21.3467 78.1854 21.636C78.68 21.9253 79.0487 22.2893 79.2914 22.728V21.328H80.5794V29H79.2914V27.572C79.0394 28.02 78.6614 28.3933 78.1574 28.692C77.6627 28.9813 77.084 29.126 76.4214 29.126C75.74 29.126 75.124 28.958 74.5734 28.622C74.0227 28.286 73.5887 27.8147 73.2714 27.208C72.954 26.6013 72.7954 25.9107 72.7954 25.136ZM79.2914 25.15C79.2914 24.5713 79.1747 24.0673 78.9414 23.638C78.708 23.2087 78.3907 22.882 77.9894 22.658C77.5974 22.4247 77.1634 22.308 76.6874 22.308C76.2114 22.308 75.7774 22.42 75.3854 22.644C74.9934 22.868 74.6807 23.1947 74.4474 23.624C74.214 24.0533 74.0974 24.5573 74.0974 25.136C74.0974 25.724 74.214 26.2373 74.4474 26.676C74.6807 27.1053 74.9934 27.4367 75.3854 27.67C75.7774 27.894 76.2114 28.006 76.6874 28.006C77.1634 28.006 77.5974 27.894 77.9894 27.67C78.3907 27.4367 78.708 27.1053 78.9414 26.676C79.1747 26.2373 79.2914 25.7287 79.2914 25.15Z" fill="#3C3C3C"/>
</svg>
