<svg width="134" height="48" viewBox="0 0 134 48" fill="none" xmlns="http://www.w3.org/2000/svg">
<rect width="134" height="48" rx="12" fill="#E2D4F0"/>
<path d="M33.1667 29.8333C36.8486 29.8333 39.8333 26.8486 39.8333 23.1667C39.8333 19.4848 36.8486 16.5 33.1667 16.5C29.4848 16.5 26.5 19.4848 26.5 23.1667C26.5 26.8486 29.4848 29.8333 33.1667 29.8333Z" stroke="#3C3C3C" stroke-width="2" stroke-linecap="round" stroke-linejoin="round"/>
<path d="M41.5 31.5L37.875 27.875" stroke="#3C3C3C" stroke-width="2" stroke-linecap="round" stroke-linejoin="round"/>
<path d="M58.846 26.83H54.59L53.806 29H52.462L55.99 19.298H57.46L60.974 29H59.63L58.846 26.83ZM58.482 25.794L56.718 20.866L54.954 25.794H58.482ZM71.7376 21.188C72.3349 21.188 72.8669 21.314 73.3336 21.566C73.8003 21.8087 74.1689 22.1773 74.4396 22.672C74.7103 23.1667 74.8456 23.7687 74.8456 24.478V29H73.5856V24.66C73.5856 23.8947 73.3943 23.3113 73.0116 22.91C72.6383 22.4993 72.1296 22.294 71.4856 22.294C70.8229 22.294 70.2956 22.5087 69.9036 22.938C69.5116 23.358 69.3156 23.9693 69.3156 24.772V29H68.0556V24.66C68.0556 23.8947 67.8643 23.3113 67.4816 22.91C67.1083 22.4993 66.5996 22.294 65.9556 22.294C65.2929 22.294 64.7656 22.5087 64.3736 22.938C63.9816 23.358 63.7856 23.9693 63.7856 24.772V29H62.5116V21.328H63.7856V22.434C64.0376 22.0327 64.3736 21.7247 64.7936 21.51C65.2229 21.2953 65.6943 21.188 66.2076 21.188C66.8516 21.188 67.4209 21.3327 67.9156 21.622C68.4103 21.9113 68.7789 22.336 69.0216 22.896C69.2363 22.3547 69.5909 21.9347 70.0856 21.636C70.5803 21.3373 71.1309 21.188 71.7376 21.188ZM83.9354 24.87C83.9354 25.1127 83.9214 25.3693 83.8934 25.64H77.7614C77.8081 26.396 78.0648 26.9887 78.5314 27.418C79.0074 27.838 79.5814 28.048 80.2534 28.048C80.8041 28.048 81.2614 27.922 81.6254 27.67C81.9988 27.4087 82.2601 27.0633 82.4094 26.634H83.7814C83.5761 27.3713 83.1654 27.9733 82.5494 28.44C81.9334 28.8973 81.1681 29.126 80.2534 29.126C79.5254 29.126 78.8721 28.9627 78.2934 28.636C77.7241 28.3093 77.2761 27.8473 76.9494 27.25C76.6228 26.6433 76.4594 25.9433 76.4594 25.15C76.4594 24.3567 76.6181 23.6613 76.9354 23.064C77.2528 22.4667 77.6961 22.0093 78.2654 21.692C78.8441 21.3653 79.5068 21.202 80.2534 21.202C80.9814 21.202 81.6254 21.3607 82.1854 21.678C82.7454 21.9953 83.1748 22.434 83.4734 22.994C83.7814 23.5447 83.9354 24.17 83.9354 24.87ZM82.6194 24.604C82.6194 24.1187 82.5121 23.7033 82.2974 23.358C82.0828 23.0033 81.7888 22.7373 81.4154 22.56C81.0514 22.3733 80.6454 22.28 80.1974 22.28C79.5534 22.28 79.0028 22.4853 78.5454 22.896C78.0974 23.3067 77.8408 23.876 77.7754 24.604H82.6194ZM86.8911 22.574C87.1151 22.1353 87.4324 21.7947 87.8431 21.552C88.2631 21.3093 88.7717 21.188 89.3691 21.188V22.504H89.0331C87.6051 22.504 86.8911 23.2787 86.8911 24.828V29H85.6171V21.328H86.8911V22.574ZM91.4977 20.082C91.2551 20.082 91.0497 19.998 90.8817 19.83C90.7137 19.662 90.6297 19.4567 90.6297 19.214C90.6297 18.9713 90.7137 18.766 90.8817 18.598C91.0497 18.43 91.2551 18.346 91.4977 18.346C91.7311 18.346 91.9271 18.43 92.0857 18.598C92.2537 18.766 92.3377 18.9713 92.3377 19.214C92.3377 19.4567 92.2537 19.662 92.0857 19.83C91.9271 19.998 91.7311 20.082 91.4977 20.082ZM92.1137 21.328V29H90.8397V21.328H92.1137ZM98.569 29L95.559 25.612V29H94.285V18.64H95.559V24.73L98.513 21.328H100.291L96.679 25.15L100.305 29H98.569ZM101.014 25.136C101.014 24.352 101.173 23.666 101.49 23.078C101.807 22.4807 102.241 22.0187 102.792 21.692C103.352 21.3653 103.973 21.202 104.654 21.202C105.326 21.202 105.909 21.3467 106.404 21.636C106.899 21.9253 107.267 22.2893 107.51 22.728V21.328H108.798V29H107.51V27.572C107.258 28.02 106.88 28.3933 106.376 28.692C105.881 28.9813 105.303 29.126 104.64 29.126C103.959 29.126 103.343 28.958 102.792 28.622C102.241 28.286 101.807 27.8147 101.49 27.208C101.173 26.6013 101.014 25.9107 101.014 25.136ZM107.51 25.15C107.51 24.5713 107.393 24.0673 107.16 23.638C106.927 23.2087 106.609 22.882 106.208 22.658C105.816 22.4247 105.382 22.308 104.906 22.308C104.43 22.308 103.996 22.42 103.604 22.644C103.212 22.868 102.899 23.1947 102.666 23.624C102.433 24.0533 102.316 24.5573 102.316 25.136C102.316 25.724 102.433 26.2373 102.666 26.676C102.899 27.1053 103.212 27.4367 103.604 27.67C103.996 27.894 104.43 28.006 104.906 28.006C105.382 28.006 105.816 27.894 106.208 27.67C106.609 27.4367 106.927 27.1053 107.16 26.676C107.393 26.2373 107.51 25.7287 107.51 25.15Z" fill="#3C3C3C"/>
</svg>
