<svg width="101" height="24" viewBox="0 0 101 24" fill="none" xmlns="http://www.w3.org/2000/svg">
<path d="M28.8779 12C28.8779 5.37258 34.2505 0 40.8779 0H100.878V24H40.8779C34.2505 24 28.8779 18.6274 28.8779 12Z" fill="#A06ECE"/>
<path d="M56.1779 9.69H52.8279V11.68C52.9679 11.4933 53.1746 11.3367 53.4479 11.21C53.7279 11.0833 54.0246 11.02 54.3379 11.02C54.8979 11.02 55.3513 11.14 55.6979 11.38C56.0513 11.62 56.3013 11.9233 56.4479 12.29C56.6013 12.6567 56.6779 13.0433 56.6779 13.45C56.6779 13.9433 56.5813 14.3833 56.3879 14.77C56.2013 15.15 55.9179 15.45 55.5379 15.67C55.1646 15.89 54.7046 16 54.1579 16C53.4313 16 52.8479 15.82 52.4079 15.46C51.9679 15.1 51.7046 14.6233 51.6179 14.03H52.7279C52.8013 14.3433 52.9646 14.5933 53.2179 14.78C53.4713 14.96 53.7879 15.05 54.1679 15.05C54.6413 15.05 54.9946 14.9067 55.2279 14.62C55.4679 14.3333 55.5879 13.9533 55.5879 13.48C55.5879 13 55.4679 12.6333 55.2279 12.38C54.9879 12.12 54.6346 11.99 54.1679 11.99C53.8413 11.99 53.5646 12.0733 53.3379 12.24C53.1179 12.4 52.9579 12.62 52.8579 12.9H51.7779V8.69H56.1779V9.69ZM57.8646 12.26C57.8646 11.1067 58.058 10.2067 58.4446 9.56C58.838 8.90667 59.5113 8.58 60.4646 8.58C61.418 8.58 62.088 8.90667 62.4746 9.56C62.868 10.2067 63.0646 11.1067 63.0646 12.26C63.0646 13.4267 62.868 14.34 62.4746 15C62.088 15.6533 61.418 15.98 60.4646 15.98C59.5113 15.98 58.838 15.6533 58.4446 15C58.058 14.34 57.8646 13.4267 57.8646 12.26ZM61.9446 12.26C61.9446 11.72 61.908 11.2633 61.8346 10.89C61.768 10.5167 61.628 10.2133 61.4146 9.98C61.2013 9.74 60.8846 9.62 60.4646 9.62C60.0446 9.62 59.728 9.74 59.5146 9.98C59.3013 10.2133 59.158 10.5167 59.0846 10.89C59.018 11.2633 58.9846 11.72 58.9846 12.26C58.9846 12.82 59.018 13.29 59.0846 13.67C59.1513 14.05 59.2913 14.3567 59.5046 14.59C59.7246 14.8233 60.0446 14.94 60.4646 14.94C60.8846 14.94 61.2013 14.8233 61.4146 14.59C61.6346 14.3567 61.778 14.05 61.8446 13.67C61.9113 13.29 61.9446 12.82 61.9446 12.26ZM64.0909 10.47C64.0909 9.98333 64.2309 9.60333 64.5109 9.33C64.7976 9.05 65.1642 8.91 65.6109 8.91C66.0576 8.91 66.4209 9.05 66.7009 9.33C66.9876 9.60333 67.1309 9.98333 67.1309 10.47C67.1309 10.9567 66.9876 11.34 66.7009 11.62C66.4209 11.9 66.0576 12.04 65.6109 12.04C65.1642 12.04 64.7976 11.9 64.5109 11.62C64.2309 11.34 64.0909 10.9567 64.0909 10.47ZM70.1909 9.04L66.2009 16H65.0809L69.0709 9.04H70.1909ZM65.6109 9.6C65.1909 9.6 64.9809 9.89 64.9809 10.47C64.9809 11.0567 65.1909 11.35 65.6109 11.35C65.8109 11.35 65.9642 11.28 66.0709 11.14C66.1842 10.9933 66.2409 10.77 66.2409 10.47C66.2409 9.89 66.0309 9.6 65.6109 9.6ZM68.1609 14.56C68.1609 14.0733 68.3009 13.6933 68.5809 13.42C68.8676 13.14 69.2342 13 69.6809 13C70.1209 13 70.4809 13.14 70.7609 13.42C71.0476 13.6933 71.1909 14.0733 71.1909 14.56C71.1909 15.0467 71.0476 15.43 70.7609 15.71C70.4809 15.99 70.1209 16.13 69.6809 16.13C69.2342 16.13 68.8676 15.99 68.5809 15.71C68.3009 15.43 68.1609 15.0467 68.1609 14.56ZM69.6709 13.69C69.2509 13.69 69.0409 13.98 69.0409 14.56C69.0409 15.14 69.2509 15.43 69.6709 15.43C70.0909 15.43 70.3009 15.14 70.3009 14.56C70.3009 13.98 70.0909 13.69 69.6709 13.69ZM78.128 16.07C77.4813 16.07 76.8847 15.92 76.338 15.62C75.798 15.3133 75.368 14.89 75.048 14.35C74.7347 13.8033 74.578 13.19 74.578 12.51C74.578 11.83 74.7347 11.22 75.048 10.68C75.368 10.14 75.798 9.72 76.338 9.42C76.8847 9.11333 77.4813 8.96 78.128 8.96C78.7813 8.96 79.378 9.11333 79.918 9.42C80.4647 9.72 80.8947 10.14 81.208 10.68C81.5213 11.22 81.678 11.83 81.678 12.51C81.678 13.19 81.5213 13.8033 81.208 14.35C80.8947 14.89 80.4647 15.3133 79.918 15.62C79.378 15.92 78.7813 16.07 78.128 16.07ZM78.128 15.08C78.588 15.08 78.998 14.9767 79.358 14.77C79.718 14.5567 79.998 14.2567 80.198 13.87C80.4047 13.4767 80.508 13.0233 80.508 12.51C80.508 11.9967 80.4047 11.5467 80.198 11.16C79.998 10.7733 79.718 10.4767 79.358 10.27C78.998 10.0633 78.588 9.96 78.128 9.96C77.668 9.96 77.258 10.0633 76.898 10.27C76.538 10.4767 76.2547 10.7733 76.048 11.16C75.848 11.5467 75.748 11.9967 75.748 12.51C75.748 13.0233 75.848 13.4767 76.048 13.87C76.2547 14.2567 76.538 14.5567 76.898 14.77C77.258 14.9767 77.668 15.08 78.128 15.08ZM86.8898 9.05V9.98H83.9398V12.03H86.2398V12.96H83.9398V16H82.7998V9.05H86.8898ZM92.0363 9.05V9.98H89.0863V12.03H91.3863V12.96H89.0863V16H87.9463V9.05H92.0363Z" fill="white"/>
</svg>
